<?xml version="1.0" encoding="UTF-8"?>
<svg width="200" height="200" viewBox="0 0 200 200" fill="none" xmlns="http://www.w3.org/2000/svg">
  <!-- Main flower -->
  <g transform="translate(100 100)">
    <!-- Large pink flower -->
    <path d="M0,0 C20,-20 40,-20 50,-10 C40,-20 20,-40 0,-40 C-20,-40 -40,-20 -50,-10 C-40,-20 -20,-20 0,0" 
          fill="#FF8AAE" opacity="0.8"/>
    <path d="M0,0 C20,20 40,20 50,10 C40,20 20,40 0,40 C-20,40 -40,20 -50,10 C-40,20 -20,20 0,0" 
          fill="#FF8AAE" opacity="0.8"/>
    <!-- Center of the flower -->
    <circle cx="0" cy="0" r="10" fill="#FF6B8E"/>
  </g>

  <!-- Small flowers -->
  <g transform="translate(160 40)">
    <circle cx="0" cy="0" r="15" fill="#FFB5C9" opacity="0.6"/>
    <circle cx="0" cy="0" r="8" fill="#FF8AAE"/>
  </g>
  <g transform="translate(40 160)">
    <circle cx="0" cy="0" r="12" fill="#FFB5C9" opacity="0.6"/>
    <circle cx="0" cy="0" r="6" fill="#FF8AAE"/>
  </g>

  <!-- Leaves -->
  <path d="M80,120 C100,140 120,140 140,120 C120,140 100,160 80,160 C60,160 40,140 60,120 C40,140 60,140 80,120" 
        fill="#90C290" opacity="0.5"/>
  <path d="M120,80 C140,100 160,100 180,80 C160,100 140,120 120,120 C100,120 80,100 100,80 C80,100 100,100 120,80" 
        fill="#90C290" opacity="0.5"/>

  <!-- Small decorative elements -->
  <circle cx="30" cy="30" r="3" fill="#FF8AAE"/>
  <circle cx="170" cy="170" r="3" fill="#FF8AAE"/>
  <circle cx="40" cy="180" r="2" fill="#90C290"/>
  <circle cx="180" cy="40" r="2" fill="#90C290"/>
</svg> 