<?xml version="1.0" encoding="UTF-8"?>
<svg width="32" height="32" viewBox="0 0 32 32" fill="none" xmlns="http://www.w3.org/2000/svg">
  <path d="M16 8C18.2091 8 20 6.20914 20 4C20 1.79086 18.2091 0 16 0C13.7909 0 12 1.79086 12 4C12 6.20914 13.7909 8 16 8Z" fill="#D4A373"/>
  <path d="M28 16C28 18.2091 29.7909 20 32 20C29.7909 20 28 21.7909 28 24C28 21.7909 26.2091 20 24 20C26.2091 20 28 18.2091 28 16Z" fill="#CCD5AE"/>
  <path d="M4 16C4 18.2091 2.20914 20 0 20C2.20914 20 4 21.7909 4 24C4 21.7909 5.79086 20 8 20C5.79086 20 4 18.2091 4 16Z" fill="#CCD5AE"/>
  <path d="M16 24C18.2091 24 20 25.7909 20 28C20 30.2091 18.2091 32 16 32C13.7909 32 12 30.2091 12 28C12 25.7909 13.7909 24 16 24Z" fill="#D4A373"/>
  <circle cx="16" cy="16" r="6" fill="#E9EDC9"/>
</svg> 